Coordinates
version=1
nRows=8
nColumns=36
inDegrees=yes

Units are S.I. units (second, meters, Newtons, ...)
If the header above contains a line with 'inDegrees', this indicates whether rotational values are in degrees (yes) or radians (no).

endheader
time	pelvis_tilt	pelvis_list	pelvis_rotation	pelvis_tx	pelvis_ty	pelvis_tz	hip_flexion_r	hip_adduction_r	hip_rotation_r	knee_angle_r	knee_angle_r_beta	ankle_angle_r	subtalar_angle_r	mtp_angle_r	hip_flexion_l	hip_adduction_l	hip_rotation_l	knee_angle_l	knee_angle_l_beta	ankle_angle_l	subtalar_angle_l	mtp_angle_l	lumbar_extension	lumbar_bending	lumbar_rotation	arm_flex_r	arm_add_r	arm_rot_r	elbow_flex_r	pro_sup_r	arm_flex_l	arm_add_l	arm_rot_l	elbow_flex_l	pro_sup_l
      1.18333330	     -3.15507463	      2.10887686	     -8.22701198	      0.69869989	      1.28493261	      0.08021749	      3.74304379	     -5.92869046	     -3.01598373	      8.27887760	      0.14449367	     13.39240312	     -5.21261862	     -7.49999987	      0.22891380	     -0.87186800	     -4.56486045	      3.68071155	      0.06424054	     11.35668894	      5.15111514	     -7.49999987	     -0.91207517	     -3.10537206	      0.57877108	      4.05648105	     -9.75846454	     13.75351827	     19.07387671	     94.36534516	      1.22990135	    -13.58437808	      8.30986818	     16.76436146	     95.29369772
      1.20000000	     -2.95989227	      2.13874262	     -8.18207032	      0.69815603	      1.28492467	      0.08006420	      3.73733246	     -5.99243395	     -2.76849851	      8.60493306	      0.15018441	     13.62668954	     -5.40294335	     -7.49999987	      0.21009698	     -0.77086901	     -4.43619620	      3.97004111	      0.06929029	     11.42324359	      4.84385263	     -7.49999987	     -1.66251797	     -3.26706177	      0.41431402	      4.00564380	     -9.91697090	     13.99586251	     19.83343245	     92.90262826	      1.52563982	    -13.84132190	      8.91997898	     17.36232859	     93.99796866
      1.21666670	     -2.91168079	      2.18465673	     -8.17283805	      0.69831603	      1.28235330	      0.08031745	      3.94502829	     -6.06684955	     -2.67180386	      9.00379898	      0.15714594	     13.75274934	     -5.42387365	     -7.49999987	      0.28367507	     -0.66335711	     -4.27543067	      4.17252487	      0.07282430	     11.39481135	      4.61082529	     -7.49999987	     -2.13739864	     -3.41125260	      0.33913816	      3.95223418	    -10.13733804	     14.24874875	     20.39357276	     91.34922639	      1.65592485	    -14.11034397	      9.47446147	     17.92750106	     92.55199863
      1.23333330	     -2.94390041	      2.12911348	     -8.19152829	      0.70460904	      1.28492462	      0.08394976	      4.17960680	     -5.96113372	     -2.46589861	      9.37315256	      0.16359237	     14.03910894	     -5.38932488	     -7.49999987	      0.53512094	     -0.72644788	     -4.28663779	      4.63609313	      0.08091509	     11.52633833	      4.45828803	     -7.49999987	     -2.42638712	     -3.49670395	      0.28779465	      3.94201533	    -10.18444814	     14.37728013	     20.30846033	     91.52654511	      1.82787238	    -14.24790099	      9.72063261	     17.78006887	     92.79802521
      1.25000000	     -3.07716771	      2.16199712	     -8.17328622	      0.69856720	      1.28483079	      0.08008551	      4.62744877	     -5.95273267	     -2.30795532	      9.86343381	      0.17214940	     14.23138076	     -5.20905540	     -7.49999987	      0.92228409	     -0.68751139	     -4.14751612	      5.03288729	      0.08784045	     11.59024405	      4.20731085	     -7.49999987	     -2.61151042	     -3.62368836	      0.64347917	      3.75330833	    -10.55140419	     15.07965319	     20.47176442	     93.26196824	      2.58251452	    -14.62899556	     12.74948506	     17.24095662	     95.66860704
      1.26666670	     -3.15667339	      2.12540215	     -8.05310072	      0.69846725	      1.28460592	      0.07984387	      5.02223212	     -5.85157591	     -2.07363126	     10.36314992	      0.18087109	     14.44448118	     -5.19171693	     -7.49999987	      1.27888984	     -0.73101363	     -4.12717371	      5.49836534	      0.09596458	     11.61348606	      4.00022266	     -7.49999987	     -3.03367868	     -3.67497770	      0.69142396	      3.61399327	    -10.70998201	     15.09163197	     20.59197509	     91.19939791	      2.89326708	    -14.72409403	     13.05679181	     17.28710335	     93.74174456
      1.28333330	     -3.06914829	      2.11097027	     -8.04817969	      0.70496168	      1.28484569	      0.08384688	      5.08933055	     -5.79574453	     -1.78713397	     10.67483251	      0.18631097	     14.66899309	     -5.06594148	     -7.49999987	      1.36339508	     -0.73430422	     -4.14806778	      5.92369219	      0.10338793	     11.58774569	      3.79991299	     -7.49999987	     -3.49713375	     -3.80631236	      0.70789749	      3.47187563	    -10.79058355	     15.08357677	     20.67791479	     91.26974037	      2.82530560	    -14.89325844	     13.08730997	     17.31496187	     93.82256385
      1.30000000	     -2.94307692	      2.07889229	     -8.00655773	      0.71113483	      1.28478631	      0.08097011	      5.09947032	     -5.75552285	     -1.53545845	     11.05174469	      0.19288933	     14.95790934	     -4.89384998	     -7.49999987	      1.26469179	     -0.71731919	     -4.09954811	      6.22393344	      0.10862813	     11.52446447	      3.54097186	     -7.49999987	     -3.92988705	     -3.87953012	      0.73701624	      3.10408883	    -11.01086972	     15.05327009	     20.75184326	     91.34305125	      2.65320174	    -14.99393374	     13.13390898	     17.38855959	     93.90768193
